<svg width="75" height="69" viewBox="0 0 75 69" fill="none" xmlns="http://www.w3.org/2000/svg">
<path d="M64.6559 0.126558C61.4853 0.781625 58.9254 3.28492 58.0799 6.53686C57.3284 9.39108 58.2913 12.5962 60.5694 14.7018C62.4013 16.4097 63.5286 16.8308 66.3469 16.8542C68.4136 16.8542 68.8598 16.784 70.0106 16.2459C73.4395 14.6316 75.4358 11.0521 74.9191 7.42588C74.3554 3.42529 71.1144 0.337115 67.1689 0.0329766C66.3234 -0.0372092 65.1961 0.0095813 64.6559 0.126558Z" fill="#2E3444"/>
<path d="M23.9553 11.2627C22.875 11.7306 21.9121 12.643 21.3015 13.8128C20.7848 14.7252 20.7848 14.9592 20.7143 26.5164L20.6439 38.3076L24.1432 38.2141C27.5486 38.1439 27.6661 38.1205 28.7699 37.442C29.6154 36.9273 30.1086 36.3892 30.5783 35.4768L31.2359 34.2369V21.4163H38.352C44.9749 21.4163 45.5386 21.4396 46.7364 21.9076C52.9131 24.2471 54.0639 32.4588 48.7561 36.3658C46.7833 37.8397 45.75 38.0269 40.1134 38.0269H35.2284V41.232C35.2284 44.9987 35.5102 45.8409 37.0838 47.1978C38.305 48.2506 39.5263 48.5548 42.3211 48.5548H44.5052L46.7599 50.8709C48.9675 53.1168 49.2963 53.6783 49.1319 54.8715C49.0614 55.2692 47.0887 57.4216 43.0726 61.4222C39.7846 64.7209 37.1073 67.4815 37.1073 67.5751C37.1073 67.6687 40.3718 67.7389 44.3643 67.7389H51.6214L54.2048 64.9782C57.6572 61.3286 57.7276 61.235 58.3617 59.9951C60.6164 55.5733 59.7944 49.4672 56.4359 45.7473L55.4495 44.6478L56.8587 43.2674C59.3951 40.7875 60.9452 38.2141 62.0255 34.7516C62.5187 33.2309 62.5892 32.529 62.5657 29.6046C62.5422 26.5632 62.4717 26.0017 61.9081 24.2471C59.8413 17.9538 55.2382 13.4151 49.038 11.5434C47.394 11.0521 46.9008 11.0288 36.0504 10.9586C26.2569 10.8884 24.6599 10.9352 23.9553 11.2627Z" fill="#2E3444"/>
<path d="M9.7935 58.5679C4.4153 63.9255 0 68.394 0 68.4875C0 68.6045 3.31147 68.6747 7.351 68.6747H14.6785L19.54 63.8085C22.6636 60.6969 24.5425 58.6615 24.7773 58.1C25.2235 57.0005 25.2235 54.8715 24.7773 53.7953C24.4015 52.9063 20.409 48.7887 19.9158 48.7887C19.7514 48.7887 15.1952 53.187 9.7935 58.5679Z" fill="#2E3444"/>
</svg>
