<svg width="20" height="20" viewBox="0 0 20 20" fill="none" xmlns="http://www.w3.org/2000/svg">
<mask id="mask0_1:248" style="mask-type:alpha" maskUnits="userSpaceOnUse" x="0" y="0" width="20" height="20">
<rect width="20" height="20" fill="#C4C4C4"/>
</mask>
<g mask="url(#mask0_1:248)">
<circle cx="9.64869" cy="5.64804" r="3.98169" stroke="black" stroke-width="1.5" stroke-linecap="round" stroke-linejoin="round"/>
<path fill-rule="evenodd" clip-rule="evenodd" d="M3.33302 15.1676C3.33195 14.8877 3.39455 14.6112 3.51609 14.3591C3.89748 13.5963 4.97299 13.192 5.86544 13.009C6.50907 12.8716 7.1616 12.7799 7.81815 12.7344C9.03371 12.6276 10.2563 12.6276 11.4718 12.7344C12.1283 12.7804 12.7808 12.8721 13.4246 13.009C14.317 13.192 15.3925 13.5582 15.7739 14.3591C16.0183 14.8731 16.0183 15.4698 15.7739 15.9838C15.3925 16.7847 14.317 17.1509 13.4246 17.3263C12.7817 17.4693 12.1289 17.5637 11.4718 17.6085C10.4825 17.6924 9.4885 17.7077 8.49702 17.6543C8.26819 17.6543 8.04698 17.6543 7.81815 17.6085C7.16353 17.5642 6.51327 17.4699 5.87307 17.3263C4.97299 17.1509 3.9051 16.7847 3.51609 15.9838C3.39517 15.7287 3.33263 15.4499 3.33302 15.1676Z" stroke="black" stroke-width="1.5" stroke-linecap="round" stroke-linejoin="round"/>
</g>
</svg>
