<svg width="20" height="20" fill="none" xmlns="http://www.w3.org/2000/svg"><path d="M13.583 5.917a.82.82 0 0 0 0 1.166l1.584 1.584H7.5a.836.836 0 0 0-.833.833c0 .458.375.833.833.833h7.667l-1.584 1.584a.82.82 0 0 0 0 1.166.82.82 0 0 0 1.167 0l2.992-2.991a.83.83 0 0 0 0-1.175l-2.992-3a.82.82 0 0 0-1.167 0Zm-8.916-2.25H10.5a.836.836 0 0 0 .833-.834A.836.836 0 0 0 10.5 2H4.667C3.75 2 3 2.75 3 3.667v11.666C3 16.25 3.75 17 4.667 17H10.5a.836.836 0 0 0 .833-.833.836.836 0 0 0-.833-.834H4.667V3.667Z" fill="#000"/></svg>