<svg width="30" height="30" viewBox="0 0 30 30" fill="none" xmlns="http://www.w3.org/2000/svg">
<rect width="30" height="30" fill="#3EB597"/>
<path d="M10.2098 10.0919C10.2761 10.0262 10.3549 9.97401 10.4417 9.93842C10.5285 9.90284 10.6215 9.88452 10.7154 9.88452C10.8093 9.88452 10.9023 9.90284 10.9891 9.93842C11.0759 9.97401 11.1547 10.0262 11.221 10.0919L15.0002 13.8289L18.7794 10.0919C18.8458 10.0263 18.9246 9.97421 19.0113 9.93869C19.0981 9.90317 19.1911 9.88489 19.285 9.88489C19.3789 9.88489 19.4718 9.90317 19.5586 9.93869C19.6454 9.97421 19.7242 10.0263 19.7906 10.0919C19.857 10.1575 19.9096 10.2354 19.9456 10.3212C19.9815 10.4069 20 10.4989 20 10.5917C20 10.6845 19.9815 10.7764 19.9456 10.8621C19.9096 10.9479 19.857 11.0258 19.7906 11.0914L16.01 14.827L19.7906 18.5625C19.857 18.6281 19.9096 18.7061 19.9456 18.7918C19.9815 18.8776 20 18.9695 20 19.0623C20 19.1551 19.9815 19.247 19.9456 19.3327C19.9096 19.4185 19.857 19.4964 19.7906 19.562C19.7242 19.6277 19.6454 19.6797 19.5586 19.7152C19.4718 19.7508 19.3789 19.769 19.285 19.769C19.1911 19.769 19.0981 19.7508 19.0113 19.7152C18.9246 19.6797 18.8458 19.6277 18.7794 19.562L15.0002 15.8251L11.221 19.562C11.1546 19.6277 11.0758 19.6797 10.989 19.7152C10.9023 19.7508 10.8093 19.769 10.7154 19.769C10.6215 19.769 10.5285 19.7508 10.4418 19.7152C10.355 19.6797 10.2762 19.6277 10.2098 19.562C10.1434 19.4964 10.0907 19.4185 10.0548 19.3327C10.0189 19.247 10.0004 19.1551 10.0004 19.0623C10.0004 18.9695 10.0189 18.8776 10.0548 18.7918C10.0907 18.7061 10.1434 18.6281 10.2098 18.5625L13.9904 14.827L10.2098 11.0914C10.1433 11.0259 10.0905 10.948 10.0545 10.8622C10.0185 10.7765 10 10.6845 10 10.5917C10 10.4988 10.0185 10.4069 10.0545 10.3211C10.0905 10.2354 10.1433 10.1575 10.2098 10.0919Z" fill="white"/>
</svg>
