<svg width="32" height="32" viewBox="0 0 32 32" fill="none" xmlns="http://www.w3.org/2000/svg">
<rect width="32" height="32" rx="16" fill="#BE0707"/>
<path d="M10.9998 21.8333C10.9998 22.75 11.7498 23.5 12.6665 23.5H19.3332C20.2498 23.5 20.9998 22.75 20.9998 21.8333V13.5C20.9998 12.5833 20.2498 11.8333 19.3332 11.8333H12.6665C11.7498 11.8333 10.9998 12.5833 10.9998 13.5V21.8333ZM20.9998 9.33333H18.9165L18.3248 8.74167C18.1748 8.59167 17.9582 8.5 17.7415 8.5H14.2582C14.0415 8.5 13.8248 8.59167 13.6748 8.74167L13.0832 9.33333H10.9998C10.5415 9.33333 10.1665 9.70833 10.1665 10.1667C10.1665 10.625 10.5415 11 10.9998 11H20.9998C21.4582 11 21.8332 10.625 21.8332 10.1667C21.8332 9.70833 21.4582 9.33333 20.9998 9.33333Z" fill="white"/>
</svg>
