<svg width="35" height="33" viewBox="0 0 35 33" fill="none" xmlns="http://www.w3.org/2000/svg">
<path d="M30.1728 0.0595385C28.6932 0.367712 27.4985 1.54537 27.104 3.07524C26.7532 4.41799 27.2026 5.92584 28.2657 6.9164C29.1206 7.71985 29.6467 7.91796 30.9619 7.92897C31.9263 7.92897 32.1346 7.89595 32.6716 7.64281C34.2718 6.88338 35.2034 5.19943 34.9622 3.49347C34.6992 1.61141 33.1867 0.158594 31.3455 0.0155137C30.9509 -0.0175049 30.4248 0.00450748 30.1728 0.0595385Z" fill="white"/>
<path d="M11.1792 5.29849C10.675 5.51861 10.2256 5.94785 9.94068 6.49816C9.69956 6.9274 9.69956 7.03747 9.66668 12.4745L9.6338 18.0217L11.2668 17.9776C12.856 17.9446 12.9108 17.9336 13.4259 17.6144C13.8205 17.3723 14.0507 17.1191 14.2699 16.6899L14.5767 16.1066V10.0752H17.8976C20.9883 10.0752 21.2514 10.0862 21.8103 10.3063C24.6928 11.4069 25.2298 15.2701 22.7529 17.1081C21.8322 17.8015 21.35 17.8896 18.7196 17.8896H16.4399V19.3974C16.4399 21.1694 16.5714 21.5656 17.3058 22.204C17.8757 22.6993 18.4456 22.8424 19.7498 22.8424H20.7691L21.8213 23.932C22.8515 24.9886 23.0049 25.2527 22.9282 25.814C22.8953 26.0011 21.9747 27.0137 20.1006 28.8958C18.5662 30.4476 17.3167 31.7464 17.3167 31.7904C17.3167 31.8344 18.8402 31.8674 20.7034 31.8674H24.09L25.2956 30.5687C26.9067 28.8517 26.9396 28.8077 27.2355 28.2244C28.2876 26.1442 27.904 23.2716 26.3368 21.5216L25.8764 21.0043L26.534 20.355C27.7177 19.1883 28.4411 17.9776 28.9452 16.3487C29.1754 15.6333 29.2083 15.3031 29.1973 13.9273C29.1864 12.4965 29.1535 12.2324 28.8904 11.4069C27.926 8.44626 25.7778 6.31106 22.8844 5.43056C22.1172 5.19943 21.887 5.18843 16.8235 5.15541C12.2532 5.12239 11.508 5.1444 11.1792 5.29849Z" fill="white"/>
<path d="M4.5703 27.553C2.06047 30.0734 0 32.1756 0 32.2196C0 32.2747 1.54535 32.3077 3.43046 32.3077H6.84997L9.11868 30.0184C10.5764 28.5546 11.4531 27.597 11.5627 27.3329C11.771 26.8156 11.771 25.814 11.5627 25.3078C11.3874 24.8895 9.5242 22.9524 9.29404 22.9524C9.21732 22.9524 7.09109 25.0216 4.5703 27.553Z" fill="white"/>
</svg>
