<svg width="161" height="33" fill="none" xmlns="http://www.w3.org/2000/svg"><path d="M30.173.06c-1.48.308-2.674 1.485-3.069 3.015-.35 1.343.099 2.85 1.162 3.841.855.804 1.38 1.002 2.696 1.013.964 0 1.173-.033 1.71-.286 1.6-.76 2.531-2.444 2.29-4.15C34.7 1.611 33.187.16 31.345.016c-.394-.034-.92-.011-1.172.044ZM11.18 5.298c-.505.22-.954.65-1.24 1.2-.24.43-.24.54-.273 5.977l-.033 5.547 1.633-.044c1.589-.033 1.644-.044 2.159-.364.394-.242.625-.495.844-.924l.307-.583v-6.032h3.32c3.091 0 3.354.011 3.913.231 2.883 1.1 3.42 4.964.943 6.802-.92.694-1.403.782-4.033.782h-2.28v1.507c0 1.772.131 2.169.866 2.807.57.495 1.14.638 2.444.638h1.02l1.051 1.09c1.03 1.057 1.184 1.32 1.107 1.882-.033.187-.953 1.2-2.827 3.082-1.535 1.552-2.784 2.85-2.784 2.894 0 .044 1.523.077 3.386.077h3.387l1.206-1.298c1.61-1.717 1.644-1.761 1.94-2.345 1.052-2.08.668-4.952-.9-6.702l-.46-.518.658-.649c1.184-1.167 1.907-2.377 2.411-4.006.23-.716.263-1.046.252-2.422-.01-1.43-.043-1.695-.307-2.52-.964-2.96-3.112-5.096-6.006-5.976-.767-.232-.997-.243-6.06-.276-4.57-.033-5.316-.01-5.645.143ZM4.57 27.553C2.06 30.073 0 32.176 0 32.22c0 .055 1.545.088 3.43.088h3.42l2.269-2.29c1.457-1.463 2.334-2.421 2.444-2.685.208-.517.208-1.519 0-2.025-.176-.418-2.039-2.356-2.269-2.356-.077 0-2.203 2.07-4.724 4.601ZM50.58 27l-2.7-3.9H44.9V27h-3.24V13h6.06c1.24 0 2.313.207 3.22.62.92.413 1.627 1 2.12 1.76.493.76.74 1.66.74 2.7 0 1.04-.253 1.94-.76 2.7-.493.747-1.2 1.32-2.12 1.72l3.14 4.5h-3.48Zm-.06-8.92c0-.787-.253-1.387-.76-1.8-.507-.427-1.247-.64-2.22-.64H44.9v4.88h2.64c.973 0 1.713-.213 2.22-.64.507-.427.76-1.027.76-1.8Zm10.747 9.08c-1.133 0-2.153-.233-3.06-.7a5.366 5.366 0 0 1-2.1-1.98c-.507-.84-.76-1.793-.76-2.86s.253-2.02.76-2.86a5.225 5.225 0 0 1 2.1-1.96c.907-.48 1.927-.72 3.06-.72s2.147.24 3.04.72a5.224 5.224 0 0 1 2.1 1.96c.507.84.76 1.793.76 2.86s-.253 2.02-.76 2.86a5.365 5.365 0 0 1-2.1 1.98c-.893.467-1.907.7-3.04.7Zm0-2.56c.8 0 1.453-.267 1.96-.8.52-.547.78-1.273.78-2.18 0-.907-.26-1.627-.78-2.16-.507-.547-1.16-.82-1.96-.82s-1.46.273-1.98.82c-.52.533-.78 1.253-.78 2.16 0 .907.26 1.633.78 2.18.52.533 1.18.8 1.98.8Zm13.185 2.56c-1.146 0-2.18-.233-3.1-.7a5.476 5.476 0 0 1-2.14-1.98c-.506-.84-.76-1.793-.76-2.86s.254-2.02.76-2.86a5.333 5.333 0 0 1 2.14-1.96c.92-.48 1.954-.72 3.1-.72 1.134 0 2.12.24 2.96.72a4.15 4.15 0 0 1 1.86 2.02l-2.42 1.3c-.56-.987-1.366-1.48-2.42-1.48-.813 0-1.486.267-2.02.8-.533.533-.8 1.26-.8 2.18 0 .92.267 1.647.8 2.18.534.533 1.207.8 2.02.8 1.067 0 1.874-.493 2.42-1.48l2.42 1.32c-.386.853-1.006 1.52-1.86 2-.84.48-1.826.72-2.96.72Zm11.159-4.38-1.5 1.48V27h-3.12V12.16h3.12v8.4l4.56-4.32h3.72l-4.48 4.56 4.88 6.2h-3.78l-3.4-4.22Zm18.654-1.12c0 .04-.02.32-.06.84h-8.14a2.535 2.535 0 0 0 1.04 1.58c.547.387 1.227.58 2.04.58.56 0 1.053-.08 1.48-.24.44-.173.847-.44 1.22-.8l1.66 1.8c-1.013 1.16-2.493 1.74-4.44 1.74-1.213 0-2.287-.233-3.22-.7-.933-.48-1.653-1.14-2.16-1.98-.507-.84-.76-1.793-.76-2.86 0-1.053.247-2 .74-2.84a5.25 5.25 0 0 1 2.06-1.98c.88-.48 1.86-.72 2.94-.72 1.053 0 2.007.227 2.86.68a4.883 4.883 0 0 1 2 1.96c.493.84.74 1.82.74 2.94Zm-5.58-3.22c-.707 0-1.3.2-1.78.6-.48.4-.773.947-.88 1.64h5.3c-.107-.68-.4-1.22-.88-1.62-.48-.413-1.066-.62-1.76-.62Zm14.597 8.04c-.306.227-.686.4-1.14.52a5.92 5.92 0 0 1-1.4.16c-1.28 0-2.273-.327-2.98-.98-.693-.653-1.04-1.613-1.04-2.88v-4.42h-1.66v-2.4h1.66v-2.62h3.12v2.62h2.68v2.4h-2.68v4.38c0 .453.114.807.34 1.06.24.24.574.36 1 .36.494 0 .914-.133 1.26-.4l.84 2.2Zm15.532-10.4c1.346 0 2.413.4 3.2 1.2.8.787 1.2 1.973 1.2 3.56V27h-3.12v-5.68c0-.853-.18-1.487-.54-1.9-.347-.427-.847-.64-1.5-.64-.734 0-1.314.24-1.74.72-.427.467-.64 1.167-.64 2.1V27h-3.12v-5.68c0-1.693-.68-2.54-2.04-2.54-.72 0-1.294.24-1.72.72-.427.467-.64 1.167-.64 2.1V27h-3.12V16.24h2.98v1.24c.4-.453.886-.8 1.46-1.04a5.018 5.018 0 0 1 1.92-.36c.76 0 1.446.153 2.06.46a3.583 3.583 0 0 1 1.48 1.3 4.43 4.43 0 0 1 1.66-1.3c.68-.307 1.42-.46 2.22-.46Zm11.536 0c1.667 0 2.947.4 3.84 1.2.894.787 1.34 1.98 1.34 3.58V27h-2.92v-1.34c-.586 1-1.68 1.5-3.28 1.5-.826 0-1.546-.14-2.16-.42-.6-.28-1.06-.667-1.38-1.16a3.019 3.019 0 0 1-.48-1.68c0-1 .374-1.787 1.12-2.36.76-.573 1.927-.86 3.5-.86h2.48c0-.68-.206-1.2-.62-1.56-.413-.373-1.033-.56-1.86-.56-.573 0-1.14.093-1.7.28a4.347 4.347 0 0 0-1.4.72l-1.12-2.18c.587-.413 1.287-.733 2.1-.96a9.566 9.566 0 0 1 2.54-.34Zm-.24 8.98c.534 0 1.007-.12 1.42-.36.414-.253.707-.62.88-1.1v-1.1h-2.14c-1.28 0-1.92.42-1.92 1.26 0 .4.154.72.46.96.32.227.754.34 1.3.34Zm14.784-8.98c1.333 0 2.407.4 3.22 1.2.827.8 1.24 1.987 1.24 3.56V27h-3.12v-5.68c0-.853-.187-1.487-.56-1.9-.373-.427-.913-.64-1.62-.64-.787 0-1.413.247-1.88.74-.467.48-.7 1.2-.7 2.16V27h-3.12V16.24h2.98v1.26a4.04 4.04 0 0 1 1.54-1.04 5.242 5.242 0 0 1 2.02-.38Z" fill="#fff"/></svg>