<svg width="17" height="21" fill="none" xmlns="http://www.w3.org/2000/svg"><circle cx="8.579" cy="5.778" r="4.778" stroke="#2E3444" stroke-width="1.5" stroke-linecap="round" stroke-linejoin="round"/><path clip-rule="evenodd" d="M1 17.201a2.215 2.215 0 0 1 .22-.97c.457-.915 1.748-1.4 2.819-1.62a16.793 16.793 0 0 1 2.343-.33 25.059 25.059 0 0 1 4.385 0c.787.056 1.57.166 2.343.33 1.07.22 2.361.66 2.82 1.62a2.27 2.27 0 0 1 0 1.95c-.459.96-1.75 1.4-2.82 1.61a15.71 15.71 0 0 1-2.343.34c-1.188.1-2.38.119-3.57.054-.275 0-.54 0-.815-.054a15.43 15.43 0 0 1-2.334-.34c-1.08-.21-2.361-.65-2.828-1.61A2.279 2.279 0 0 1 1 17.2Z" stroke="#2E3444" stroke-width="1.5" stroke-linecap="round" stroke-linejoin="round"/></svg>